<svg width="1695" height="475.00000000000006" xmlns="http://www.w3.org/2000/svg" xml:space="preserve" enable-background="new 0 0 560 528" version="1.1">
 <g>
  <title>Layer 1</title>
  <g id="svg_8">
   <g transform="rotate(2.5, 521.979, 237.992)" id="svg_1">
    <path id="svg_3" d="m241.33361,275.67285c3.94104,-6.59515 5.63771,-3.13006 14.22087,0.92643c8.58316,4.05649 10.32582,5.12127 14.48118,6.45645c4.15536,1.33518 61.62195,23.84436 95.55012,21.6914c18.9093,-1.19992 37.11486,-5.75515 54.54977,-13.24578c1.04282,-0.448 2.00503,-1.08341 3.19495,-1.736c-1.10038,-5.16324 -6.42298,-7.19037 -8.67871,-12.67639c30.69412,-6.5448 61.04058,-13.01547 92.91427,-19.81177c-10.01016,30.89969 -19.54282,60.32532 -29.21817,90.19153c-4.63006,-2.36526 -6.88275,-6.15991 -9.6983,-9.25308c-2.1341,-2.34445 -3.82035,-3.01813 -6.78736,-1.3747c-26.26123,14.54578 -54.44641,23.37656 -84.23089,26.3631c-53.41254,5.35578 -102.8106,-6.74167 -147.99237,-35.80844c-3.50093,-2.25229 -6.85308,-4.73507 -10.33972,-7.01059c-2.98957,-1.95108 -2.61382,-2.27844 -0.44161,-6.25009c2.17221,-3.97165 18.53493,-31.86692 22.47597,-38.46207z" stroke="black" fill="none" transform="rotate(63, 362.354, 310.858)"/>
    <path transform="rotate(185, 521.438, 60.2647)" id="svg_4" d="m400.41759,25.07986c3.94104,-6.59515 5.63771,-3.13006 14.22087,0.92643c8.58316,4.05649 10.32582,5.12127 14.48118,6.45645c4.15536,1.33518 61.62195,23.84436 95.55012,21.6914c18.9093,-1.19992 37.11486,-5.75515 54.54977,-13.24578c1.04282,-0.448 2.00503,-1.08341 3.19495,-1.736c-1.10038,-5.16324 -6.42298,-7.19037 -8.67871,-12.67639c30.69412,-6.5448 61.04058,-13.01547 92.91427,-19.81177c-10.01016,30.89969 -19.54282,60.32532 -29.21817,90.19153c-4.63006,-2.36526 -6.88275,-6.15991 -9.6983,-9.25308c-2.1341,-2.34445 -3.82035,-3.01813 -6.78736,-1.3747c-26.26123,14.54578 -54.44641,23.37656 -84.23089,26.3631c-53.41254,5.35578 -102.8106,-6.74167 -147.99237,-35.80844c-3.50093,-2.25229 -6.85308,-4.73507 -10.33972,-7.01059c-2.98957,-1.95108 -2.61382,-2.27844 -0.44161,-6.25009c2.17221,-3.97165 18.53493,-31.86692 22.47597,-38.46207z" stroke="black" fill="none"/>
    <path transform="rotate(-55, 661.345, 317.697)" id="svg_5" d="m540.32566,282.51131c3.94104,-6.59515 5.63771,-3.13006 14.22087,0.92643c8.58316,4.05649 10.32582,5.12127 14.48118,6.45645c4.15536,1.33518 61.62195,23.84436 95.55012,21.6914c18.9093,-1.19992 37.11486,-5.75515 54.54977,-13.24578c1.04282,-0.448 2.00503,-1.08341 3.19495,-1.736c-1.10038,-5.16324 -6.42298,-7.19037 -8.67871,-12.67639c30.69412,-6.5448 61.04058,-13.01547 92.91427,-19.81177c-10.01016,30.89969 -19.54282,60.32532 -29.21817,90.19153c-4.63006,-2.36526 -6.88275,-6.15991 -9.6983,-9.25308c-2.1341,-2.34445 -3.82035,-3.01813 -6.78736,-1.3747c-26.26123,14.54578 -54.44641,23.37656 -84.23089,26.3631c-53.41254,5.35578 -102.8106,-6.74167 -147.99237,-35.80844c-3.50093,-2.25229 -6.85308,-4.73507 -10.33972,-7.01059c-2.98957,-1.95108 -2.61382,-2.27844 -0.44161,-6.25009c2.17221,-3.97165 18.53493,-31.86692 22.47597,-38.46207z" stroke="black" fill="none"/>
   </g>
   <g transform="rotate(2.5, 1179.65, 238.226)" id="svg_28">
    <path id="svg_22" d="m899.00048,275.9068c3.94104,-6.59515 5.63771,-3.13006 14.22087,0.92643c8.58316,4.05649 10.32582,5.12127 14.48118,6.45645c4.15536,1.33518 61.62195,23.84436 95.55012,21.6914c18.9093,-1.19992 37.11486,-5.75515 54.54977,-13.24578c1.04282,-0.448 2.00503,-1.08341 3.19495,-1.736c-1.10038,-5.16324 -6.42298,-7.19037 -8.67871,-12.67639c30.69412,-6.5448 61.04058,-13.01547 92.91427,-19.81177c-10.01016,30.89969 -19.54282,60.32532 -29.21817,90.19153c-4.63006,-2.36526 -6.88275,-6.15991 -9.6983,-9.25308c-2.1341,-2.34445 -3.82035,-3.01813 -6.78736,-1.3747c-26.26123,14.54578 -54.44641,23.37656 -84.23089,26.3631c-53.41254,5.35578 -102.8106,-6.74167 -147.99237,-35.80844c-3.50093,-2.25229 -6.85308,-4.73507 -10.33972,-7.01059c-2.98957,-1.95108 -2.61382,-2.27844 -0.44161,-6.25009c2.17221,-3.97165 18.53493,-31.86692 22.47597,-38.46207z" stroke="black" fill="none" transform="rotate(63, 1020.02, 311.091)"/>
    <path transform="rotate(185, 1179.1, 60.4988)" id="svg_23" d="m1058.08446,25.31381c3.94104,-6.59515 5.63771,-3.13006 14.22087,0.92643c8.58316,4.05649 10.32582,5.12127 14.48118,6.45645c4.15536,1.33518 61.62195,23.84436 95.55012,21.6914c18.9093,-1.19992 37.11486,-5.75515 54.54977,-13.24578c1.04282,-0.448 2.00503,-1.08341 3.19495,-1.736c-1.10038,-5.16324 -6.42298,-7.19037 -8.67871,-12.67639c30.69412,-6.5448 61.04058,-13.01547 92.91427,-19.81177c-10.01016,30.89969 -19.54282,60.32532 -29.21817,90.19153c-4.63006,-2.36526 -6.88275,-6.15991 -9.6983,-9.25308c-2.1341,-2.34445 -3.82035,-3.01813 -6.78736,-1.3747c-26.26123,14.54578 -54.44641,23.37656 -84.23089,26.3631c-53.41254,5.35578 -102.8106,-6.74167 -147.99237,-35.80844c-3.50093,-2.25229 -6.85308,-4.73507 -10.33972,-7.01059c-2.98957,-1.95108 -2.61382,-2.27844 -0.44161,-6.25009c2.17221,-3.97165 18.53493,-31.86692 22.47597,-38.46207z" stroke="black" fill="none"/>
    <path transform="rotate(-55, 1319.01, 317.931)" id="svg_24" d="m1197.99253,282.74526c3.94104,-6.59515 5.63771,-3.13006 14.22087,0.92643c8.58316,4.05649 10.32582,5.12127 14.48118,6.45645c4.15536,1.33518 61.62195,23.84436 95.55012,21.6914c18.9093,-1.19992 37.11486,-5.75515 54.54977,-13.24578c1.04282,-0.448 2.00503,-1.08341 3.19495,-1.736c-1.10038,-5.16324 -6.42298,-7.19037 -8.67871,-12.67639c30.69412,-6.5448 61.04058,-13.01547 92.91427,-19.81177c-10.01016,30.89969 -19.54282,60.32532 -29.21817,90.19153c-4.63006,-2.36526 -6.88275,-6.15991 -9.6983,-9.25308c-2.1341,-2.34445 -3.82035,-3.01813 -6.78736,-1.3747c-26.26123,14.54578 -54.44641,23.37656 -84.23089,26.3631c-53.41254,5.35578 -102.8106,-6.74167 -147.99237,-35.80844c-3.50093,-2.25229 -6.85308,-4.73507 -10.33972,-7.01059c-2.98957,-1.95108 -2.61382,-2.27844 -0.44161,-6.25009c2.17221,-3.97165 18.53493,-31.86692 22.47597,-38.46207z" stroke="black" fill="none"/>
   </g>
   <g id="svg_2">
    <path id="svg_6" fill="none" stroke="black" d="m859.97946,83.05222l77.98319,50.98901m-83.9819,41.99095l83.98189,-41.99095m-77.98314,-50.98901l-0.00007,13.99698m-5.99875,63.98621l0.0001,14.99677m5.99867,-78.98298l-107.97672,-1.99957m101.97802,65.98578l-101.97802,-0.99978m-0.00001,-64.986l0.00003,64.986"/>
   </g>
   <path id="svg_9" transform="rotate(67.5, 1138.1, -1444.55)" opacity="undefined" stroke="black" fill="none"/>
   <g id="svg_17">
    <path id="svg_16" fill="none" stroke="black" d="m1513.97946,83.05222l77.98319,50.98901m-83.9819,41.99095l83.98189,-41.99095m-77.98314,-50.98901l-0.00007,13.99698m-5.99875,63.98621l0.0001,14.99677m5.99867,-78.98298l-107.97672,-1.99957m101.97802,65.98578l-101.97802,-0.99978m-0.00001,-64.986l0.00003,64.986"/>
   </g>
   <g id="svg_19">
    <path id="svg_18" fill="none" stroke="black" d="m206.97766,83.05222l77.98319,50.98901m-83.9819,41.99095l83.98189,-41.99095m-77.98314,-50.98901l-0.00007,13.99698m-5.99875,63.98621l0.0001,14.99677m5.99867,-78.98298l-107.97672,-1.99957m101.97802,65.98578l-101.97802,-0.99978m-0.00001,-64.986l0.00003,64.986"/>
   </g>
   <text font-weight="bold" xml:space="preserve" text-anchor="start" font-size="60" stroke-width="0" id="svg_20" y="151" x="25.51429" stroke="black" fill="#000000">0</text>
   <text font-weight="bold" xml:space="preserve" text-anchor="start" font-size="60" stroke-width="0" id="svg_21" y="151" x="325.51913" stroke="black" fill="#000000">1</text>
   <text font-weight="bold" xml:space="preserve" text-anchor="start" font-size="60" stroke-width="0" id="svg_7" y="151" x="673.51532" stroke="black" fill="#000000">3</text>
   <text font-weight="bold" xml:space="preserve" text-anchor="start" font-size="60" stroke-width="0" id="svg_10" y="151" x="977.51198" stroke="black" fill="#000000">4</text>
   <text font-weight="bold" xml:space="preserve" text-anchor="start" font-size="60" stroke-width="0" id="svg_13" y="151" x="1331.5081" stroke="black" fill="#000000">6</text>
   <text font-weight="bold" xml:space="preserve" text-anchor="start" font-size="60" stroke-width="0" id="svg_14" y="151" x="1633.50479" stroke="black" fill="#000000">7</text>
   <text font-weight="bold" xml:space="preserve" text-anchor="start" font-size="60" stroke-width="0" id="svg_15" y="450.99669" x="1155.51004" stroke="black" fill="#000000">5</text>
   <text font-weight="bold" xml:space="preserve" text-anchor="start" font-size="60" stroke-width="0" id="svg_29" y="451" x="499.51722" stroke="black" fill="#000000">2</text>
  </g>
 </g>

</svg>