<svg width="1810" height="500" xmlns="http://www.w3.org/2000/svg" version="1.1" enable-background="new 0 0 560 528" xml:space="preserve">
   <path d="m919.98012,75l77.98319,50.98901m-83.9819,41.99095l83.98189,-41.99095m-77.98314,-50.98901l-0.00007,13.99698m-5.99875,63.98621l0.0001,14.99677m5.99867,-78.98298l-107.97672,-1.99957m101.97802,65.98578l-101.97802,-0.99978m-0.00001,-64.986l0.00003,64.986" stroke="black" fill="none" id="svg_6"/>
   <path fill="none" stroke="black" opacity="undefined" id="svg_9"/>
   <path d="m1579.98016,75l77.98319,50.98901m-83.9819,41.99095l83.98189,-41.99095m-77.98314,-50.98901l-0.00007,13.99698m-5.99875,63.98621l0.0001,14.99677m5.99867,-78.98298l-107.97672,-1.99957m101.97802,65.98578l-101.97802,-0.99978m-0.00001,-64.986l0.00003,64.986" stroke="black" fill="none" id="svg_16"/>
   <path d="m259.97836,75l77.98319,50.98901m-83.9819,41.99095l83.98189,-41.99095m-77.98314,-50.98901l-0.00007,13.99698m-5.99875,63.98621l0.0001,14.99677m5.99867,-78.98298l-107.97672,-1.99957m101.97802,65.98578l-101.97802,-0.99978m-0.00001,-64.986l0.00003,64.986" stroke="black" fill="none" id="svg_18"/>
   <path transform="rotate(65.5, 415.328, 303.826)" fill="none" stroke="black" d="m294.30745,268.64092c3.94104,-6.59515 5.63771,-3.13006 14.22087,0.92643c8.58316,4.05649 10.32582,5.12127 14.48118,6.45645c4.15536,1.33518 61.62195,23.84436 95.55012,21.6914c18.9093,-1.19992 37.11486,-5.75515 54.54977,-13.24578c1.04282,-0.448 2.00503,-1.08341 3.19495,-1.736c-1.10038,-5.16324 -6.42298,-7.19037 -8.67871,-12.67639c30.69412,-6.5448 61.04058,-13.01547 92.91427,-19.81177c-10.01016,30.89969 -19.54282,60.32532 -29.21817,90.19153c-4.63006,-2.36526 -6.88275,-6.15991 -9.6983,-9.25308c-2.1341,-2.34445 -3.82035,-3.01813 -6.78736,-1.3747c-26.26123,14.54578 -54.44641,23.37656 -84.23089,26.3631c-53.41254,5.35578 -102.8106,-6.74167 -147.99237,-35.80844c-3.50093,-2.25229 -6.85308,-4.73507 -10.33972,-7.01059c-2.98957,-1.95108 -2.61382,-2.27844 -0.44161,-6.25009c2.17221,-3.97165 18.53493,-31.86692 22.47597,-38.46207z" id="svg_3"/>
   <path fill="none" stroke="black" d="m464.17199,25.22576c3.94104,-6.59515 5.63771,-3.13006 14.22087,0.92643c8.58316,4.05649 10.32582,5.12127 14.48118,6.45645c4.15536,1.33518 61.62195,23.84436 95.55012,21.6914c18.9093,-1.19992 37.11486,-5.75515 54.54977,-13.24578c1.04282,-0.448 2.00503,-1.08341 3.19495,-1.736c-1.10038,-5.16324 -6.42298,-7.19037 -8.67871,-12.67639c30.69412,-6.5448 61.04058,-13.01547 92.91427,-19.81177c-10.01016,30.89969 -19.54282,60.32532 -29.21817,90.19153c-4.63006,-2.36526 -6.88275,-6.15991 -9.6983,-9.25308c-2.1341,-2.34445 -3.82035,-3.01813 -6.78736,-1.3747c-26.26123,14.54578 -54.44641,23.37656 -84.23089,26.3631c-53.41254,5.35578 -102.8106,-6.74167 -147.99237,-35.80844c-3.50093,-2.25229 -6.85308,-4.73507 -10.33972,-7.01059c-2.98957,-1.95108 -2.61382,-2.27844 -0.44161,-6.25009c2.17221,-3.97165 18.53493,-31.86692 22.47597,-38.46207z" id="svg_4" transform="rotate(187.5, 585.192, 60.4105)"/>
   <path fill="none" stroke="black" d="m592.71565,288.51495c3.94104,-6.59515 5.63771,-3.13006 14.22087,0.92643c8.58316,4.05649 10.32582,5.12127 14.48118,6.45645c4.15536,1.33518 61.62195,23.84436 95.55012,21.6914c18.9093,-1.19992 37.11486,-5.75515 54.54977,-13.24578c1.04282,-0.448 2.00503,-1.08341 3.19495,-1.736c-1.10038,-5.16324 -6.42298,-7.19037 -8.67871,-12.67639c30.69412,-6.5448 61.04058,-13.01547 92.91427,-19.81177c-10.01016,30.89969 -19.54282,60.32532 -29.21817,90.19153c-4.63006,-2.36526 -6.88275,-6.15991 -9.6983,-9.25308c-2.1341,-2.34445 -3.82035,-3.01813 -6.78736,-1.3747c-26.26123,14.54578 -54.44641,23.37656 -84.23089,26.3631c-53.41254,5.35578 -102.8106,-6.74167 -147.99237,-35.80844c-3.50093,-2.25229 -6.85308,-4.73507 -10.33972,-7.01059c-2.98957,-1.95108 -2.61382,-2.27844 -0.44161,-6.25009c2.17221,-3.97165 18.53493,-31.86692 22.47597,-38.46207z" id="svg_5" transform="rotate(-52.5, 713.735, 323.699)"/>
   <path transform="rotate(65.5, 1075.33, 303.416)" fill="none" stroke="black" d="m954.30745,268.23057c3.94104,-6.59515 5.63771,-3.13006 14.22087,0.92643c8.58316,4.05649 10.32582,5.12127 14.48118,6.45645c4.15536,1.33518 61.62195,23.84436 95.55012,21.6914c18.9093,-1.19992 37.11486,-5.75515 54.54977,-13.24578c1.04282,-0.448 2.00503,-1.08341 3.19495,-1.736c-1.10038,-5.16324 -6.42298,-7.19037 -8.67871,-12.67639c30.69412,-6.5448 61.04058,-13.01547 92.91427,-19.81177c-10.01016,30.89969 -19.54282,60.32532 -29.21817,90.19153c-4.63006,-2.36526 -6.88275,-6.15991 -9.6983,-9.25308c-2.1341,-2.34445 -3.82035,-3.01813 -6.78736,-1.3747c-26.26123,14.54578 -54.44641,23.37656 -84.23089,26.3631c-53.41254,5.35578 -102.8106,-6.74167 -147.99237,-35.80844c-3.50093,-2.25229 -6.85308,-4.73507 -10.33972,-7.01059c-2.98957,-1.95108 -2.61382,-2.27844 -0.44161,-6.25009c2.17221,-3.97165 18.53493,-31.86692 22.47597,-38.46207z" id="svg_12"/>
   <path fill="none" stroke="black" d="m1124.17199,24.81541c3.94104,-6.59515 5.63771,-3.13006 14.22087,0.92643c8.58316,4.05649 10.32582,5.12127 14.48118,6.45645c4.15536,1.33518 61.62195,23.84436 95.55012,21.6914c18.9093,-1.19992 37.11486,-5.75515 54.54977,-13.24578c1.04282,-0.448 2.00503,-1.08341 3.19495,-1.736c-1.10038,-5.16324 -6.42298,-7.19037 -8.67871,-12.67639c30.69412,-6.5448 61.04058,-13.01547 92.91427,-19.81177c-10.01016,30.89969 -19.54282,60.32532 -29.21817,90.19153c-4.63006,-2.36526 -6.88275,-6.15991 -9.6983,-9.25308c-2.1341,-2.34445 -3.82035,-3.01813 -6.78736,-1.3747c-26.26123,14.54578 -54.44641,23.37656 -84.23089,26.3631c-53.41254,5.35578 -102.8106,-6.74167 -147.99237,-35.80844c-3.50093,-2.25229 -6.85308,-4.73507 -10.33972,-7.01059c-2.98957,-1.95108 -2.61382,-2.27844 -0.44161,-6.25009c2.17221,-3.97165 18.53493,-31.86692 22.47597,-38.46207z" id="svg_13" transform="rotate(187.5, 1245.19, 60.0001)"/>
   <path fill="none" stroke="black" d="m1252.71565,288.1046c3.94104,-6.59515 5.63771,-3.13006 14.22087,0.92643c8.58316,4.05649 10.32582,5.12127 14.48118,6.45645c4.15536,1.33518 61.62195,23.84436 95.55012,21.6914c18.9093,-1.19992 37.11486,-5.75515 54.54977,-13.24578c1.04282,-0.448 2.00503,-1.08341 3.19495,-1.736c-1.10038,-5.16324 -6.42298,-7.19037 -8.67871,-12.67639c30.69412,-6.5448 61.04058,-13.01547 92.91427,-19.81177c-10.01016,30.89969 -19.54282,60.32532 -29.21817,90.19153c-4.63006,-2.36526 -6.88275,-6.15991 -9.6983,-9.25308c-2.1341,-2.34445 -3.82035,-3.01813 -6.78736,-1.3747c-26.26123,14.54578 -54.44641,23.37656 -84.23089,26.3631c-53.41254,5.35578 -102.8106,-6.74167 -147.99237,-35.80844c-3.50093,-2.25229 -6.85308,-4.73507 -10.33972,-7.01059c-2.98957,-1.95108 -2.61382,-2.27844 -0.44161,-6.25009c2.17221,-3.97165 18.53493,-31.86692 22.47597,-38.46207z" id="svg_14" transform="rotate(-52.5, 1373.73, 323.289)"/>
   <circle id="svg_11" stroke="black" fill="none" r="50" cy="124" cx="391.0007"/>
   <circle id="svg_1" stroke="black" fill="none" r="50" cy="124" cx="758.0007"/>
   <circle id="svg_7" stroke="black" fill="none" r="50" cy="440" cx="572.0007"/>
   <circle id="svg_10" stroke="black" fill="none" r="50" cy="123.58965" cx="1051.0007"/>
   <circle stroke="black" fill="none" r="50" cy="123.58965" cx="99"/>
   <circle stroke="black" fill="none" r="50" cy="123.58965" cx="1710"/>
   <circle stroke="black" fill="none" r="50" cy="123.58965" cx="1418.0007"/>
   <circle id="svg_21" stroke="black" fill="none" r="50" cy="439.58965" cx="1232.0007"/>
   <text fill="#000000" stroke="black" x="72" y="167" id="svg_20" stroke-width="0" font-size="120" text-anchor="start" xml:space="preserve">0</text>
   <text fill="#000000" stroke="black" x="359.84836" y="167" id="svg_23" stroke-width="0" font-size="120" text-anchor="start" xml:space="preserve">1</text>
   <text fill="#000000" stroke="black" x="537.51499" y="483" id="svg_24" stroke-width="0" font-size="120" text-anchor="start" xml:space="preserve">2</text>
   <text fill="#000000" stroke="black" x="723.51499" y="167" id="svg_25" stroke-width="0" font-size="120" text-anchor="start" xml:space="preserve">3</text>
   <text fill="#000000" stroke="black" x="1010.51593" y="167" id="svg_26" stroke-width="0" font-size="120" text-anchor="start" xml:space="preserve">4</text>
   <text fill="#000000" stroke="black" x="1195.84952" y="483.00001" id="svg_27" stroke-width="0" font-size="120" text-anchor="start" xml:space="preserve">5</text>
   <text fill="#000000" stroke="black" x="1382.51649" y="167" id="svg_28" stroke-width="0" font-size="115" text-anchor="start" xml:space="preserve">6</text>
   <text fill="#000000" stroke="black" x="1678.51691" y="167.00001" id="svg_29" stroke-width="0" font-size="115" text-anchor="start" xml:space="preserve">7</text>
</svg>