<svg width="500" height="500" xmlns="http://www.w3.org/2000/svg" version="1.1" enable-background="new 0 0 560 528" xml:space="preserve">
 <g>
  <title>Left eye</title>
  <g transform="rotate(60, 277.183, 226.205) translate(0, 300) scale(1, -1)" id="left">
   <path transform="rotate(65.5, 115.316, 129.416)" fill="none" stroke="black" d="m-5.70617,94.23065c3.94104,-6.59515 5.63771,-3.13006 14.22087,0.92643c8.58316,4.05649 10.32582,5.12127 14.48118,6.45645c4.15536,1.33518 61.62195,23.84436 95.55012,21.6914c18.9093,-1.19992 37.11486,-5.75515 54.54977,-13.24578c1.04282,-0.448 2.00503,-1.08341 3.19495,-1.736c-1.10038,-5.16324 -6.42298,-7.19037 -8.67871,-12.67639c30.69412,-6.5448 61.04058,-13.01547 92.91427,-19.81177c-10.01016,30.89969 -19.54282,60.32532 -29.21817,90.19153c-4.63006,-2.36526 -6.88275,-6.15991 -9.6983,-9.25308c-2.1341,-2.34445 -3.82035,-3.01813 -6.78736,-1.3747c-26.26123,14.54578 -54.44641,23.37656 -84.23089,26.3631c-53.41254,5.35578 -102.8106,-6.74167 -147.99237,-35.80844c-3.50093,-2.25229 -6.85308,-4.73507 -10.33972,-7.01059c-2.98957,-1.95108 -2.61382,-2.27844 -0.44161,-6.25009c2.17221,-3.97165 18.53493,-31.86692 22.47597,-38.46207z" id="svg_12"/>
   <path fill="none" stroke="black" d="m164.15837,-149.18451c3.94104,-6.59515 5.63771,-3.13006 14.22087,0.92643c8.58316,4.05649 10.32582,5.12127 14.48118,6.45645c4.15536,1.33518 61.62195,23.84436 95.55012,21.6914c18.9093,-1.19992 37.11486,-5.75515 54.54977,-13.24578c1.04282,-0.448 2.00503,-1.08341 3.19495,-1.736c-1.10038,-5.16324 -6.42298,-7.19037 -8.67871,-12.67639c30.69412,-6.5448 61.04058,-13.01547 92.91427,-19.81177c-10.01016,30.89969 -19.54282,60.32532 -29.21817,90.19153c-4.63006,-2.36526 -6.88275,-6.15991 -9.6983,-9.25308c-2.1341,-2.34445 -3.82035,-3.01813 -6.78736,-1.3747c-26.26123,14.54578 -54.44641,23.37656 -84.23089,26.3631c-53.41254,5.35578 -102.8106,-6.74167 -147.99237,-35.80844c-3.50093,-2.25229 -6.85308,-4.73507 -10.33972,-7.01059c-2.98957,-1.95108 -2.61382,-2.27844 -0.44161,-6.25009c2.17221,-3.97165 18.53493,-31.86692 22.47597,-38.46207z" id="svg_13" transform="rotate(187.5, 285.176, -114)"/>
   <path fill="none" stroke="black" d="m292.70203,114.10468c3.94104,-6.59515 5.63771,-3.13006 14.22087,0.92643c8.58316,4.05649 10.32582,5.12127 14.48118,6.45645c4.15536,1.33518 61.62195,23.84436 95.55012,21.6914c18.9093,-1.19992 37.11486,-5.75515 54.54977,-13.24578c1.04282,-0.448 2.00503,-1.08341 3.19495,-1.736c-1.10038,-5.16324 -6.42298,-7.19037 -8.67871,-12.67639c30.69412,-6.5448 61.04058,-13.01547 92.91427,-19.81177c-10.01016,30.89969 -19.54282,60.32532 -29.21817,90.19153c-4.63006,-2.36526 -6.88275,-6.15991 -9.6983,-9.25308c-2.1341,-2.34445 -3.82035,-3.01813 -6.78736,-1.3747c-26.26123,14.54578 -54.44641,23.37656 -84.23089,26.3631c-53.41254,5.35578 -102.8106,-6.74167 -147.99237,-35.80844c-3.50093,-2.25229 -6.85308,-4.73507 -10.33972,-7.01059c-2.98957,-1.95108 -2.61382,-2.27844 -0.44161,-6.25009c2.17221,-3.97165 18.53493,-31.86692 22.47597,-38.46207z" id="svg_14" transform="rotate(-52.5, 413.716, 149.289)"/>
   <circle id="svg_10" stroke="black" fill="none" r="50" cy="-50.41027" cx="90.98708"/>
   <circle stroke="black" fill="none" r="50" cy="-50.41027" cx="457.98708" id="svg_4"/>
   <circle id="svg_21" stroke="black" fill="none" r="49.99998" cy="265.58973" cx="271.98708"/>
  </g>
 </g>

</svg>