<?xml version="1.0" encoding="utf-8"?>
<svg viewBox="-40 -25 300 300" xmlns="http://www.w3.org/2000/svg">
  <g transform="matrix(1, 0, 0, 1, 5.613248825073242, 27.078840255737305)">
    <path fill="#0069B4" d="M211.445 6.586c-1.328-3.566-4.672-12.512-61.367-.594-7.734 1.625-11.297 2.34-18.945 4.274-6.817 1.726-13.578 3.644-20.254 5.886-12.387 4.16-24.852 8.735-35.797 15.989-5.125 3.394-20.914 17.28-13.2 27.632 3.583 4.801 9.013 7.575 14.481 9.536 5.844 2.097 36.082 8.086 37.938 8.64 3 .899 7.469 2.41 10.601 4.09 3.168 1.695 5.114 6.45 5.282 7.059.011.812-.075 6.535-4.98 11.547-27.364 27.988-74.938 25.75-116.798 4.894-4.789-2.387-10.508 5.652-7.633 9.516 10.168 13.668 40.36 20.543 52.883 21.582 14.348 1.187 28.754.734 42.926-1.918 14.262-2.672 50.04-11.04 64.516-37.278 3.144-5.699 5.804-14.277 1.808-19.457-12.215-15.832-54.289-12.664-69.219-26.691-12.316-11.57 33.376-26.02 67.7-32.184 28.27-5.074 45.187-2.726 47.308-4.101 3.028-1.965 3.98-5.113 2.75-8.422"/>
    <g clippath="url(#clip1)">
      <path fill="#F39200" d="M204.078 137.836c-64.695-6.012-112.398 16.527-117.855 19.379-4.633 2.418-10.75 4.89-13.707 9.375-1.25 1.89-1.7 5.105.156 6.652 6.39 5.328 30.066-13.52 40.082-9.484-7.43 9.168-14.219 14.172-20.754 19.695-8.488 7.184-41.285 22.55-39.48-1.414.976-12.941 8.101-29.86 14.71-40.875 12.266-20.434 31.079-36.184 52.145-46.96a153.518 153.518 0 0110.703-4.97c-.828-7.632-11.016-9.824-16.48-11.433-10.813 4.082-21.23 9.183-31.028 15.441-20.011 12.778-36.89 30.711-47.293 52.14-5.496 11.321-9.43 24.009-9.425 36.677.003 5.902 1 12.191 4.5 17.086 3.09 4.32 7.566 6.957 12.507 8.718 11.95 4.266 27.61.563 34.543-.941 9.895-2.145 53.02-20.406 72.664-51.414.692-1.094 4.528-3.89 7.66-4.356 26.962-4.007 42.864 1.235 48.114-.023 2.648-.637 4.293-1.41 5.758-3.7.992-1.554 1.379-3.562.98-5.363-.973-4.425-7.48-4.129-8.5-4.23"/>
    </g>
  </g>
</svg>