<?xml version="1.0" encoding="UTF-8"?>
<svg xmlns="http://www.w3.org/2000/svg" xmlns:xlink="http://www.w3.org/1999/xlink" width="619.21pt" height="209.85pt" viewBox="-5 -5 500 219.85" version="1.1">
<defs>
<clipPath id="clip1">
  <path d="M 25 77 L 213 77 L 213 209.851563 L 25 209.851563 Z M 25 77 "/>
</clipPath>
<clipPath id="clip2">
  <path d="M 598 75 L 619.210938 75 L 619.210938 133 L 598 133 Z M 598 75 "/>
</clipPath>
</defs>
<g id="surface1">
<path style=" stroke:none;fill-rule:nonzero;fill:rgb(0%,41.19873%,70.599365%);fill-opacity:1;" d="M 211.445313 6.585938 C 210.117188 3.019531 206.773438 -5.925781 150.078125 5.992188 C 142.34375 7.617188 138.78125 8.332031 131.132813 10.265625 C 124.316406 11.992188 117.554688 13.910156 110.878906 16.152344 C 98.492188 20.3125 86.027344 24.886719 75.082031 32.140625 C 69.957031 35.535156 54.167969 49.421875 61.882813 59.773438 C 65.464844 64.574219 70.894531 67.347656 76.363281 69.308594 C 82.207031 71.40625 112.445313 77.394531 114.300781 77.949219 C 117.300781 78.847656 121.769531 80.359375 124.902344 82.039063 C 128.070313 83.734375 130.015625 88.488281 130.183594 89.097656 C 130.195313 89.910156 130.109375 95.632813 125.203125 100.644531 C 97.839844 128.632813 50.265625 126.394531 8.40625 105.539063 C 3.617188 103.152344 -2.101563 111.191406 0.773438 115.054688 C 10.941406 128.722656 41.132813 135.597656 53.65625 136.636719 C 68.003906 137.824219 82.410156 137.371094 96.582031 134.71875 C 110.84375 132.046875 146.621094 123.679688 161.097656 97.441406 C 164.242188 91.742188 166.902344 83.164063 162.90625 77.984375 C 150.691406 62.152344 108.617188 65.320313 93.6875 51.292969 C 81.371094 39.722656 127.0625 25.273438 161.386719 19.109375 C 189.65625 14.035156 206.574219 16.382813 208.695313 15.007813 C 211.722656 13.042969 212.675781 9.894531 211.445313 6.585938 "/>
<g clip-path="url(#clip1)" clip-rule="nonzero">
<path style=" stroke:none;fill-rule:nonzero;fill:rgb(95.298767%,57.299805%,0%);fill-opacity:1;" d="M 204.078125 137.835938 C 139.382813 131.824219 91.679688 154.363281 86.222656 157.214844 C 81.589844 159.632813 75.472656 162.105469 72.515625 166.589844 C 71.265625 168.480469 70.816406 171.695313 72.671875 173.242188 C 79.0625 178.570313 102.738281 159.722656 112.753906 163.757813 C 105.324219 172.925781 98.535156 177.929688 92 183.453125 C 83.511719 190.636719 50.714844 206.003906 52.519531 182.039063 C 53.496094 169.097656 60.621094 152.179688 67.230469 141.164063 C 79.496094 120.730469 98.308594 104.980469 119.375 94.203125 C 123.171875 92.261719 126.742188 90.628906 130.078125 89.234375 C 129.25 81.601563 119.0625 79.410156 113.597656 77.800781 C 102.785156 81.882813 92.367188 86.984375 82.570313 93.242188 C 62.558594 106.019531 45.679688 123.953125 35.277344 145.382813 C 29.78125 156.703125 25.847656 169.390625 25.851563 182.058594 C 25.855469 187.960938 26.851563 194.25 30.351563 199.144531 C 33.441406 203.464844 37.917969 206.101563 42.859375 207.863281 C 54.808594 212.128906 70.46875 208.425781 77.402344 206.921875 C 87.296875 204.777344 130.421875 186.515625 150.066406 155.507813 C 150.757813 154.414063 154.59375 151.617188 157.726563 151.152344 C 184.6875 147.144531 200.589844 152.386719 205.839844 151.128906 C 208.488281 150.492188 210.132813 149.71875 211.597656 147.429688 C 212.589844 145.875 212.976563 143.867188 212.578125 142.066406 C 211.605469 137.640625 205.097656 137.9375 204.078125 137.835938 "/>
</g>
<path style=" stroke:none;fill-rule:nonzero;fill:rgb(95.298767%,57.299805%,0%);fill-opacity:1;" d="M 211.136719 66.40625 C 207.863281 63.476563 201.78125 63.894531 197.777344 63.914063 C 183.679688 63.988281 169.589844 64.964844 155.640625 67.046875 C 152.765625 67.476563 149.894531 67.964844 147.039063 68.507813 C 148.898438 69.074219 150.539063 69.679688 151.597656 70.296875 C 153.796875 71.574219 160.9375 74.347656 163.878906 79.339844 C 176.382813 77.207031 191.066406 76.285156 193.8125 76.191406 C 194.019531 76.183594 202.273438 76.09375 204.78125 75.859375 C 207.367188 75.617188 211.578125 75.230469 212.976563 72.589844 C 214.1875 70.300781 212.886719 67.972656 211.136719 66.40625 "/>
<path style=" stroke:none;fill-rule:nonzero;fill:rgb(0%,39.99939%,69.398499%);fill-opacity:1;" d="M 276.347656 121.597656 C 277.679688 112.878906 259.761719 113.878906 258.234375 101.417969 C 257.28125 93.632813 264.113281 90.203125 269.382813 90.089844 C 274.597656 89.980469 277.300781 91.25 277.300781 91.25 L 275.550781 97.285156 C 273.964844 96.175781 268.777344 94.644531 265.1875 97.066406 C 264.078125 97.8125 263.515625 99.3125 263.609375 101.335938 C 263.792969 105.390625 271.265625 108.035156 272.886719 108.640625 C 274.503906 109.242188 275.992188 110.035156 277.351563 111.019531 C 278.710938 112.003906 279.851563 113.25 280.777344 114.753906 C 281.699219 116.257813 282.164063 118.242188 282.164063 120.703125 C 282.164063 122.457031 281.894531 124.097656 281.355469 125.628906 C 280.816406 127.160156 277.34375 136.820313 260.511719 130.519531 C 258.503906 129.765625 256.425781 128.421875 255.039063 127.601563 L 257.59375 120.480469 C 258.089844 120.777344 259.628906 122.785156 263.273438 124.328125 C 268.3125 126.460938 275.503906 127.113281 276.347656 121.597656 "/>
<path style=" stroke:none;fill-rule:nonzero;fill:rgb(0%,39.99939%,69.398499%);fill-opacity:1;" d="M 303.671875 121.640625 C 303.671875 123.558594 303.515625 126.363281 307.519531 126.605469 C 311.71875 126.859375 313.652344 125.746094 313.652344 125.742188 L 311.335938 132.625 C 311.335938 132.625 306.519531 132.738281 305.441406 132.738281 C 303.132813 132.738281 301.230469 132.039063 299.742188 130.640625 C 298.253906 129.246094 297.511719 126.875 297.511719 123.53125 L 297.511719 74.195313 L 303.671875 74.195313 "/>
<path style=" stroke:none;fill-rule:nonzero;fill:rgb(0%,39.99939%,69.398499%);fill-opacity:1;" d="M 383.152344 94.914063 C 384.152344 93.902344 385.339844 93.03125 386.707031 92.289063 C 388.785156 91.171875 391.261719 90.609375 394.136719 90.609375 C 396.242188 90.609375 398.089844 90.867188 399.679688 91.390625 C 401.273438 91.910156 402.59375 92.824219 403.644531 94.136719 C 404.695313 95.449219 405.492188 97.21875 406.03125 99.433594 C 406.570313 101.648438 406.84375 104.453125 406.84375 107.84375 L 406.84375 132.632813 L 400.679688 132.632813 L 400.679688 109.238281 C 400.777344 105.164063 400.339844 101.742188 399.199219 99.917969 C 397.304688 96.875 394.023438 97.058594 392.101563 97.121094 C 387.273438 97.28125 384.402344 100.8125 383.117188 105.390625 C 381.652344 110.59375 382.125 116.914063 382.125 116.914063 L 382.125 132.632813 L 375.964844 132.632813 L 375.964844 89.914063 L 381.445313 89.914063 "/>
<path style=" stroke:none;fill-rule:nonzero;fill:rgb(0%,39.99939%,69.398499%);fill-opacity:1;" d="M 426.367188 90.070313 L 430.589844 90.070313 L 432.527344 94.863281 L 432.527344 132.632813 L 426.367188 132.632813 Z M 425.148438 77.28125 C 425.226563 75.976563 425.648438 74.886719 426.410156 74.007813 C 427.175781 73.128906 428.101563 72.730469 429.191406 72.8125 C 430.28125 72.894531 431.183594 73.429688 431.898438 74.425781 C 432.609375 75.421875 432.929688 76.566406 432.847656 77.867188 C 432.765625 79.171875 432.3125 80.214844 431.488281 81.007813 C 430.660156 81.796875 429.707031 82.152344 428.613281 82.070313 C 427.523438 81.984375 426.652344 81.492188 426.003906 80.589844 C 425.351563 79.6875 425.066406 78.585938 425.148438 77.28125 "/>
<path style=" stroke:none;fill-rule:nonzero;fill:rgb(0%,39.99939%,69.398499%);fill-opacity:1;" d="M 464.660156 126.183594 C 459.671875 126.597656 454.316406 122.546875 455.050781 111.929688 C 455.605469 103.886719 459.320313 97.371094 464.609375 97.011719 C 474.097656 96.367188 474.207031 103.210938 474.226563 111.265625 C 474.242188 119.324219 472.089844 125.570313 464.660156 126.183594 M 480.695313 93.050781 L 480.695313 89.339844 L 475.175781 89.210938 L 474.082031 92.574219 C 472.589844 91.648438 470.125 90.679688 466.242188 90.574219 C 460.136719 90.40625 456.894531 92.414063 453.765625 96.050781 C 450.636719 99.691406 449.070313 105.011719 449.070313 112.015625 C 449.070313 119.292969 450.289063 124.652344 452.726563 128.097656 C 455.164063 131.546875 458.976563 133.246094 464.160156 133.273438 C 471.550781 133.308594 474.632813 128.347656 474.632813 128.347656 L 474.632813 132.285156 C 474.632813 134.363281 475.179688 137.253906 472.664063 140.007813 C 465.65625 147.691406 456.027344 141.132813 454.84375 140.640625 L 451.753906 147.175781 C 465.902344 154.296875 473.558594 148.671875 476.199219 146.15625 C 478.847656 143.636719 480.714844 139.5625 480.714844 134.257813 L 480.714844 93.054688 C 480.707031 93.050781 480.703125 93.050781 480.695313 93.050781 "/>
<path style=" stroke:none;fill-rule:nonzero;fill:rgb(0%,39.99939%,69.398499%);fill-opacity:1;" d="M 352.132813 110.167969 C 352.726563 118.429688 350.566406 126.132813 342.019531 126.441406 C 335.289063 126.679688 330.847656 119.929688 330.984375 111.691406 C 331.121094 103.449219 333.519531 97.191406 340.394531 96.636719 C 345.074219 96.257813 351.316406 98.816406 352.132813 110.167969 M 357.566406 102.53125 C 356.898438 99.898438 355.871094 97.644531 354.484375 95.773438 C 353.097656 93.898438 351.339844 92.460938 349.210938 91.453125 C 347.078125 90.449219 344.578125 89.945313 341.703125 89.945313 C 336.261719 89.945313 332.09375 91.78125 329.191406 95.445313 C 326.289063 99.113281 324.84375 104.394531 324.84375 111.289063 C 324.84375 114.492188 325.175781 117.414063 325.84375 120.046875 C 326.507813 122.679688 327.539063 124.933594 328.921875 126.804688 C 330.308594 128.679688 332.066406 130.121094 334.195313 131.125 C 336.328125 132.128906 338.828125 132.632813 341.703125 132.632813 C 347.144531 132.632813 351.316406 130.796875 354.214844 127.132813 C 357.113281 123.46875 358.566406 118.1875 358.566406 111.289063 C 358.566406 108.085938 358.230469 105.167969 357.566406 102.53125 "/>
</g>
</svg>
